<svg width="30" height="30" viewBox="0 0 30 30" fill="none" xmlns="http://www.w3.org/2000/svg">
<rect width="30" height="30" rx="10" fill="white"/>
<path d="M27 16C27.5523 16 28 15.5523 28 15C28 14.4477 27.5523 14 27 14L27 16ZM2.29289 14.2929C1.90237 14.6834 1.90237 15.3166 2.29289 15.7071L8.65685 22.0711C9.04738 22.4616 9.68054 22.4616 10.0711 22.0711C10.4616 21.6805 10.4616 21.0474 10.0711 20.6569L4.41421 15L10.0711 9.34314C10.4616 8.95262 10.4616 8.31946 10.0711 7.92893C9.68054 7.53841 9.04738 7.53841 8.65686 7.92893L2.29289 14.2929ZM27 14L3 14L3 16L27 16L27 14Z" fill="#6E6E6E"/>
</svg>
