<svg width="24" height="21" viewBox="0 0 24 21" fill="none" xmlns="http://www.w3.org/2000/svg">
<path d="M18.2836 10.7382H17.2031C17.1824 10.7382 17.1625 10.73 17.1479 10.7153C17.1332 10.7007 17.125 10.6808 17.125 10.6601V7.64288C17.125 7.24029 16.9651 6.85418 16.6804 6.56951C16.3957 6.28484 16.0096 6.12491 15.607 6.12491H12.5898C12.5691 6.12491 12.5493 6.11668 12.5346 6.10203C12.5199 6.08737 12.5117 6.0675 12.5117 6.04678V4.96631C12.5117 3.90616 11.6719 3.01866 10.6117 3.0003C10.3549 2.99579 10.0997 3.04247 9.86106 3.13763C9.62243 3.23279 9.40515 3.37452 9.22189 3.55455C9.03862 3.73458 8.89305 3.9493 8.79365 4.18619C8.69426 4.42308 8.64303 4.67739 8.64297 4.93428V6.04678C8.64297 6.0675 8.63474 6.08737 8.62009 6.10203C8.60544 6.11668 8.58556 6.12491 8.56484 6.12491H5.54766C5.13757 6.12614 4.74464 6.2896 4.45466 6.57957C4.16469 6.86955 4.00124 7.26248 4 7.67256V10.4218C4 10.4425 4.00823 10.4624 4.02288 10.477C4.03753 10.4917 4.0574 10.4999 4.07813 10.4999H5.1293C6.27656 10.4999 7.22617 11.4952 7.24219 12.6425C7.25859 13.8093 6.32383 14.8749 5.16055 14.8749H4.07813C4.0574 14.8749 4.03753 14.8831 4.02288 14.8978C4.00823 14.9124 4 14.9323 4 14.953V17.7023C4.00124 18.1123 4.16469 18.5053 4.45466 18.7952C4.74464 19.0852 5.13757 19.2487 5.54766 19.2499H8.29688C8.3176 19.2499 8.33747 19.2417 8.35212 19.227C8.36677 19.2124 8.375 19.1925 8.375 19.1718V18.3542C8.375 17.1714 9.3418 16.153 10.5234 16.1253C11.6992 16.098 12.75 16.9187 12.75 18.0894V19.1718C12.75 19.1925 12.7582 19.2124 12.7729 19.227C12.7875 19.2417 12.8074 19.2499 12.8281 19.2499H15.607C16.0096 19.2499 16.3957 19.09 16.6804 18.8053C16.9651 18.5206 17.125 18.1345 17.125 17.7319V14.6851C17.125 14.6643 17.1332 14.6445 17.1479 14.6298C17.1625 14.6152 17.1824 14.6069 17.2031 14.6069H18.3156C19.3949 14.6069 20.25 13.7214 20.25 12.6382C20.25 11.555 19.3438 10.7382 18.2836 10.7382Z" stroke="white" stroke-linecap="round" stroke-linejoin="round"/>
</svg>
